<svg xmlns="http://www.w3.org/2000/svg" xmlns:xlink="http://www.w3.org/1999/xlink" width="500" zoomAndPan="magnify" viewBox="0 0 375 374.999991" height="500" preserveAspectRatio="xMidYMid meet" version="1.0"><defs><clipPath id="7ba9dd447d"><path d="M 29.078125 35.574219 L 329.078125 35.574219 L 329.078125 335.574219 L 29.078125 335.574219 Z M 29.078125 35.574219 " clip-rule="nonzero"/></clipPath><clipPath id="e814096d49"><path d="M 200 199 L 370 199 L 370 369 L 200 369 Z M 200 199 " clip-rule="nonzero"/></clipPath><clipPath id="0b5a15433a"><path d="M 234.867188 165.484375 L 403.84375 233.757812 L 335.570312 402.734375 L 166.59375 334.460938 Z M 234.867188 165.484375 " clip-rule="nonzero"/></clipPath><clipPath id="d1143f3bf7"><path d="M 234.867188 165.484375 L 403.84375 233.757812 L 335.570312 402.734375 L 166.59375 334.460938 Z M 234.867188 165.484375 " clip-rule="nonzero"/></clipPath><clipPath id="a15212e365"><path d="M 234.867188 165.484375 L 403.84375 233.757812 L 335.570312 402.734375 L 166.59375 334.460938 Z M 234.867188 165.484375 " clip-rule="nonzero"/></clipPath><clipPath id="3ffdbf05b6"><path d="M 211 209 L 360 209 L 360 359 L 211 359 Z M 211 209 " clip-rule="nonzero"/></clipPath><clipPath id="5e43f4623d"><path d="M 234.867188 165.484375 L 403.84375 233.757812 L 335.570312 402.734375 L 166.59375 334.460938 Z M 234.867188 165.484375 " clip-rule="nonzero"/></clipPath><clipPath id="d6cba553d8"><path d="M 234.867188 165.484375 L 403.84375 233.757812 L 335.570312 402.734375 L 166.59375 334.460938 Z M 234.867188 165.484375 " clip-rule="nonzero"/></clipPath><clipPath id="2e0f64404f"><path d="M 234.867188 165.484375 L 403.84375 233.757812 L 335.570312 402.734375 L 166.59375 334.460938 Z M 234.867188 165.484375 " clip-rule="nonzero"/></clipPath><clipPath id="02463180e8"><path d="M 267 267 L 280 267 L 280 288 L 267 288 Z M 267 267 " clip-rule="nonzero"/></clipPath><clipPath id="7af563e6a5"><path d="M 234.867188 165.484375 L 403.84375 233.757812 L 335.570312 402.734375 L 166.59375 334.460938 Z M 234.867188 165.484375 " clip-rule="nonzero"/></clipPath><clipPath id="57a121591a"><path d="M 234.867188 165.484375 L 403.84375 233.757812 L 335.570312 402.734375 L 166.59375 334.460938 Z M 234.867188 165.484375 " clip-rule="nonzero"/></clipPath><clipPath id="168ff07f72"><path d="M 234.867188 165.484375 L 403.84375 233.757812 L 335.570312 402.734375 L 166.59375 334.460938 Z M 234.867188 165.484375 " clip-rule="nonzero"/></clipPath><clipPath id="a3c25bfe27"><path d="M 11 27 L 122 27 L 122 139 L 11 139 Z M 11 27 " clip-rule="nonzero"/></clipPath><clipPath id="a73604a526"><path d="M 34.023438 5.3125 L 144.355469 50.5625 L 99.105469 160.894531 L -11.226562 115.644531 Z M 34.023438 5.3125 " clip-rule="nonzero"/></clipPath><clipPath id="af50ac1084"><path d="M 34.023438 5.3125 L 144.355469 50.5625 L 99.105469 160.894531 L -11.226562 115.644531 Z M 34.023438 5.3125 " clip-rule="nonzero"/></clipPath><clipPath id="aa51d5e83c"><path d="M 34.023438 5.3125 L 144.355469 50.5625 L 99.105469 160.894531 L -11.226562 115.644531 Z M 34.023438 5.3125 " clip-rule="nonzero"/></clipPath><clipPath id="a0309fc8f2"><path d="M 53 66 L 65 66 L 65 79 L 53 79 Z M 53 66 " clip-rule="nonzero"/></clipPath><clipPath id="30d5e60301"><path d="M 34.023438 5.3125 L 144.355469 50.5625 L 99.105469 160.894531 L -11.226562 115.644531 Z M 34.023438 5.3125 " clip-rule="nonzero"/></clipPath><clipPath id="7b864f84b9"><path d="M 34.023438 5.3125 L 144.355469 50.5625 L 99.105469 160.894531 L -11.226562 115.644531 Z M 34.023438 5.3125 " clip-rule="nonzero"/></clipPath><clipPath id="509166057b"><path d="M 34.023438 5.3125 L 144.355469 50.5625 L 99.105469 160.894531 L -11.226562 115.644531 Z M 34.023438 5.3125 " clip-rule="nonzero"/></clipPath><clipPath id="62dda9232a"><path d="M 17 34 L 116 34 L 116 132 L 17 132 Z M 17 34 " clip-rule="nonzero"/></clipPath><clipPath id="aa9f748126"><path d="M 34.023438 5.3125 L 144.355469 50.5625 L 99.105469 160.894531 L -11.226562 115.644531 Z M 34.023438 5.3125 " clip-rule="nonzero"/></clipPath><clipPath id="9c9063ebaa"><path d="M 34.023438 5.3125 L 144.355469 50.5625 L 99.105469 160.894531 L -11.226562 115.644531 Z M 34.023438 5.3125 " clip-rule="nonzero"/></clipPath><clipPath id="36084cb65a"><path d="M 34.023438 5.3125 L 144.355469 50.5625 L 99.105469 160.894531 L -11.226562 115.644531 Z M 34.023438 5.3125 " clip-rule="nonzero"/></clipPath><clipPath id="43b212575e"><path d="M 234 22 L 349 22 L 349 137 L 234 137 Z M 234 22 " clip-rule="nonzero"/></clipPath><clipPath id="12ea8e774e"><path d="M 251.210938 0.285156 L 370.847656 39.820312 L 331.3125 159.457031 L 211.675781 119.921875 Z M 251.210938 0.285156 " clip-rule="nonzero"/></clipPath><clipPath id="09570a42df"><path d="M 251.210938 0.285156 L 370.847656 39.820312 L 331.3125 159.457031 L 211.675781 119.921875 Z M 251.210938 0.285156 " clip-rule="nonzero"/></clipPath><clipPath id="a69eb0ba88"><path d="M 251.210938 0.285156 L 370.847656 39.820312 L 331.3125 159.457031 L 211.675781 119.921875 Z M 251.210938 0.285156 " clip-rule="nonzero"/></clipPath><clipPath id="83c1af1c63"><path d="M 241 30 L 342 30 L 342 130 L 241 130 Z M 241 30 " clip-rule="nonzero"/></clipPath><clipPath id="ddb446121a"><path d="M 251.210938 0.285156 L 370.847656 39.820312 L 331.3125 159.457031 L 211.675781 119.921875 Z M 251.210938 0.285156 " clip-rule="nonzero"/></clipPath><clipPath id="cecc1f1c4f"><path d="M 251.210938 0.285156 L 370.847656 39.820312 L 331.3125 159.457031 L 211.675781 119.921875 Z M 251.210938 0.285156 " clip-rule="nonzero"/></clipPath><clipPath id="560c9450a2"><path d="M 251.210938 0.285156 L 370.847656 39.820312 L 331.3125 159.457031 L 211.675781 119.921875 Z M 251.210938 0.285156 " clip-rule="nonzero"/></clipPath><clipPath id="130d4b9ced"><path d="M 93 361 L 94 361 L 94 362 L 93 362 Z M 93 361 " clip-rule="nonzero"/></clipPath><clipPath id="d6d299ea32"><path d="M 78.09375 219.34375 L 156.988281 322.351562 L 79.582031 381.636719 L 0.6875 278.628906 Z M 78.09375 219.34375 " clip-rule="nonzero"/></clipPath><clipPath id="bd61bbbe02"><path d="M 78.09375 219.34375 L 156.988281 322.351562 L 79.582031 381.636719 L 0.6875 278.628906 Z M 78.09375 219.34375 " clip-rule="nonzero"/></clipPath><clipPath id="2d5aea7cea"><path d="M 78.09375 219.34375 L 156.988281 322.351562 L 79.582031 381.636719 L 0.6875 278.628906 Z M 78.09375 219.34375 " clip-rule="nonzero"/></clipPath><clipPath id="db63907014"><path d="M 137 308 L 138 308 L 138 309 L 137 309 Z M 137 308 " clip-rule="nonzero"/></clipPath><clipPath id="1989b6a09d"><path d="M 78.09375 219.34375 L 156.988281 322.351562 L 79.582031 381.636719 L 0.6875 278.628906 Z M 78.09375 219.34375 " clip-rule="nonzero"/></clipPath><clipPath id="f5cb2ee7bd"><path d="M 78.09375 219.34375 L 156.988281 322.351562 L 79.582031 381.636719 L 0.6875 278.628906 Z M 78.09375 219.34375 " clip-rule="nonzero"/></clipPath><clipPath id="2dc3d10399"><path d="M 78.09375 219.34375 L 156.988281 322.351562 L 79.582031 381.636719 L 0.6875 278.628906 Z M 78.09375 219.34375 " clip-rule="nonzero"/></clipPath><clipPath id="b620f158d2"><path d="M 18 295 L 19 295 L 19 297 L 18 297 Z M 18 295 " clip-rule="nonzero"/></clipPath><clipPath id="67d8375ded"><path d="M 78.09375 219.34375 L 156.988281 322.351562 L 79.582031 381.636719 L 0.6875 278.628906 Z M 78.09375 219.34375 " clip-rule="nonzero"/></clipPath><clipPath id="0b8d3ddec9"><path d="M 78.09375 219.34375 L 156.988281 322.351562 L 79.582031 381.636719 L 0.6875 278.628906 Z M 78.09375 219.34375 " clip-rule="nonzero"/></clipPath><clipPath id="f172f9a342"><path d="M 78.09375 219.34375 L 156.988281 322.351562 L 79.582031 381.636719 L 0.6875 278.628906 Z M 78.09375 219.34375 " clip-rule="nonzero"/></clipPath><clipPath id="378ff5a0c0"><path d="M 17 244 L 138 244 L 138 363 L 17 363 Z M 17 244 " clip-rule="nonzero"/></clipPath><clipPath id="96c57b67ae"><path d="M 78.09375 219.34375 L 156.988281 322.351562 L 79.582031 381.636719 L 0.6875 278.628906 Z M 78.09375 219.34375 " clip-rule="nonzero"/></clipPath><clipPath id="6b87dc6935"><path d="M 78.09375 219.34375 L 156.988281 322.351562 L 79.582031 381.636719 L 0.6875 278.628906 Z M 78.09375 219.34375 " clip-rule="nonzero"/></clipPath><clipPath id="2307a3ad8a"><path d="M 78.09375 219.34375 L 156.988281 322.351562 L 79.582031 381.636719 L 0.6875 278.628906 Z M 78.09375 219.34375 " clip-rule="nonzero"/></clipPath><clipPath id="32e4b5b174"><path d="M 49 275 L 129 275 L 129 354 L 49 354 Z M 49 275 " clip-rule="nonzero"/></clipPath><clipPath id="3dabded955"><path d="M 78.09375 219.34375 L 156.988281 322.351562 L 79.582031 381.636719 L 0.6875 278.628906 Z M 78.09375 219.34375 " clip-rule="nonzero"/></clipPath><clipPath id="dedfa56fb1"><path d="M 78.09375 219.34375 L 156.988281 322.351562 L 79.582031 381.636719 L 0.6875 278.628906 Z M 78.09375 219.34375 " clip-rule="nonzero"/></clipPath><clipPath id="e22a8341fc"><path d="M 78.09375 219.34375 L 156.988281 322.351562 L 79.582031 381.636719 L 0.6875 278.628906 Z M 78.09375 219.34375 " clip-rule="nonzero"/></clipPath><clipPath id="223f357bd9"><path d="M 26 254 L 90 254 L 90 316 L 26 316 Z M 26 254 " clip-rule="nonzero"/></clipPath><clipPath id="4648ceec34"><path d="M 78.09375 219.34375 L 156.988281 322.351562 L 79.582031 381.636719 L 0.6875 278.628906 Z M 78.09375 219.34375 " clip-rule="nonzero"/></clipPath><clipPath id="01aee7d9c3"><path d="M 78.09375 219.34375 L 156.988281 322.351562 L 79.582031 381.636719 L 0.6875 278.628906 Z M 78.09375 219.34375 " clip-rule="nonzero"/></clipPath><clipPath id="ba45f02b9f"><path d="M 78.09375 219.34375 L 156.988281 322.351562 L 79.582031 381.636719 L 0.6875 278.628906 Z M 78.09375 219.34375 " clip-rule="nonzero"/></clipPath></defs><g clip-path="url(#7ba9dd447d)"><path fill="#5ce1e6" d="M 179.078125 335.574219 C 96.394531 335.574219 29.078125 268.261719 29.078125 185.574219 C 29.078125 102.890625 96.394531 35.574219 179.078125 35.574219 C 261.765625 35.574219 329.078125 102.890625 329.078125 185.574219 C 329.078125 268.261719 261.765625 335.574219 179.078125 335.574219 Z M 179.078125 37.792969 C 97.578125 37.792969 31.296875 104.074219 31.296875 185.574219 C 31.296875 267.078125 97.578125 333.359375 179.078125 333.359375 C 260.582031 333.359375 326.863281 267.078125 326.863281 185.574219 C 326.863281 104.074219 260.582031 37.792969 179.078125 37.792969 Z M 179.078125 37.792969 " fill-opacity="1" fill-rule="nonzero"/></g><g clip-path="url(#e814096d49)"><g clip-path="url(#0b5a15433a)"><g clip-path="url(#d1143f3bf7)"><g clip-path="url(#a15212e365)"><path fill="#ff5722" d="M 241.765625 209.222656 C 244.90625 201.445312 253.757812 197.6875 261.535156 200.828125 L 360.105469 240.65625 C 367.882812 243.796875 371.640625 252.648438 368.5 260.425781 L 328.671875 358.996094 C 325.53125 366.773438 316.675781 370.53125 308.902344 367.390625 L 210.328125 327.5625 C 202.554688 324.421875 198.796875 315.570312 201.9375 307.792969 Z M 241.765625 209.222656 " fill-opacity="1" fill-rule="nonzero"/></g></g></g></g><g clip-path="url(#3ffdbf05b6)"><g clip-path="url(#5e43f4623d)"><g clip-path="url(#d6cba553d8)"><g clip-path="url(#2e0f64404f)"><path fill="#1c0802" d="M 253.746094 209.96875 L 211.078125 315.578125 L 316.6875 358.25 L 359.359375 252.640625 Z M 274.171875 308.3125 L 275.628906 296.984375 L 261.84375 291.414062 L 255.027344 300.578125 L 244.335938 296.257812 L 280.199219 252.519531 L 289.449219 256.257812 L 284.96875 312.675781 Z M 299.375 318.496094 L 289.613281 314.550781 L 304.644531 277.355469 L 314.40625 281.300781 Z M 315.746094 274.960938 C 314.394531 275.5625 312.910156 275.535156 311.277344 274.875 C 309.648438 274.21875 308.5625 273.207031 308.007812 271.835938 C 307.453125 270.464844 307.480469 269.035156 308.082031 267.542969 C 308.695312 266.03125 309.675781 264.988281 311.027344 264.414062 C 312.378906 263.835938 313.859375 263.878906 315.460938 264.527344 C 317.0625 265.171875 318.152344 266.175781 318.730469 267.527344 C 319.304688 268.875 319.285156 270.308594 318.671875 271.824219 C 318.070312 273.3125 317.09375 274.359375 315.746094 274.960938 Z M 315.746094 274.960938 " fill-opacity="1" fill-rule="nonzero"/></g></g></g></g><g clip-path="url(#02463180e8)"><g clip-path="url(#7af563e6a5)"><g clip-path="url(#57a121591a)"><g clip-path="url(#168ff07f72)"><path fill="#1c0802" d="M 267.453125 283.878906 L 276.800781 287.660156 L 279.335938 267.929688 Z M 267.453125 283.878906 " fill-opacity="1" fill-rule="nonzero"/></g></g></g></g><g clip-path="url(#a3c25bfe27)"><g clip-path="url(#a73604a526)"><g clip-path="url(#af50ac1084)"><g clip-path="url(#aa51d5e83c)"><path fill="#03a9f4" d="M 38.386719 33.953125 C 40.46875 28.875 46.273438 26.449219 51.351562 28.53125 L 115.710938 54.925781 C 120.789062 57.007812 123.21875 62.8125 121.136719 67.890625 L 94.742188 132.25 C 92.660156 137.328125 86.855469 139.757812 81.777344 137.675781 L 17.414062 111.28125 C 12.339844 109.195312 9.910156 103.390625 11.992188 98.316406 Z M 38.386719 33.953125 " fill-opacity="1" fill-rule="nonzero"/></g></g></g></g><g clip-path="url(#a0309fc8f2)"><g clip-path="url(#30d5e60301)"><g clip-path="url(#7b864f84b9)"><g clip-path="url(#509166057b)"><path fill="#020f16" d="M 61.957031 68.253906 L 57.355469 66.367188 L 53.175781 76.558594 L 57.710938 78.417969 C 58.96875 78.933594 60.109375 78.921875 61.136719 78.382812 C 62.160156 77.839844 62.996094 76.785156 63.640625 75.210938 C 64.308594 73.578125 64.488281 72.140625 64.183594 70.886719 C 63.875 69.632812 63.132812 68.753906 61.957031 68.253906 Z M 61.957031 68.253906 " fill-opacity="1" fill-rule="nonzero"/></g></g></g></g><g clip-path="url(#62dda9232a)"><g clip-path="url(#aa9f748126)"><g clip-path="url(#9c9063ebaa)"><g clip-path="url(#36084cb65a)"><path fill="#020f16" d="M 46.226562 34.484375 L 17.945312 103.441406 L 86.902344 131.722656 L 115.183594 62.765625 Z M 64.359375 84.316406 C 61.699219 85.394531 58.6875 85.242188 55.320312 83.859375 L 50.917969 82.058594 L 46.207031 93.550781 L 39.605469 90.84375 L 53.011719 58.160156 L 64.144531 62.726562 C 67.378906 64.050781 69.542969 66.113281 70.644531 68.90625 C 71.742188 71.699219 71.636719 74.699219 70.324219 77.898438 C 69.011719 81.101562 67.023438 83.238281 64.359375 84.316406 Z M 80.546875 105.851562 C 78.378906 106.5 75.964844 106.277344 73.316406 105.191406 C 71.535156 104.460938 70.105469 103.46875 69.03125 102.214844 C 67.957031 100.960938 67.285156 99.550781 67.023438 97.996094 C 66.761719 96.4375 66.925781 94.941406 67.515625 93.503906 L 73.554688 95.980469 C 73.132812 97.097656 73.046875 98.035156 73.308594 98.789062 C 73.566406 99.542969 74.25 100.144531 75.355469 100.597656 C 77.0625 101.296875 78.230469 100.878906 78.863281 99.335938 C 79.085938 98.796875 79.03125 98.195312 78.703125 97.527344 C 78.371094 96.859375 77.480469 95.773438 76.015625 94.265625 C 73.835938 92.128906 72.484375 90.292969 71.972656 88.75 C 71.457031 87.207031 71.546875 85.59375 72.238281 83.902344 C 73.113281 81.777344 74.597656 80.335938 76.699219 79.582031 C 78.800781 78.828125 81.117188 78.96875 83.644531 80.003906 C 86.304688 81.097656 88.15625 82.660156 89.195312 84.695312 C 90.234375 86.726562 90.273438 88.902344 89.324219 91.222656 L 82.96875 88.617188 C 83.78125 86.644531 83.363281 85.316406 81.714844 84.640625 C 81.042969 84.367188 80.40625 84.347656 79.796875 84.585938 C 79.1875 84.828125 78.734375 85.324219 78.429688 86.074219 C 78.207031 86.609375 78.25 87.183594 78.5625 87.792969 C 78.875 88.402344 79.761719 89.453125 81.230469 90.945312 C 83.429688 92.96875 84.816406 94.78125 85.40625 96.398438 C 85.996094 98.011719 85.90625 99.753906 85.140625 101.621094 C 84.25 103.792969 82.71875 105.203125 80.546875 105.851562 Z M 80.546875 105.851562 " fill-opacity="1" fill-rule="nonzero"/></g></g></g></g><g clip-path="url(#43b212575e)"><g clip-path="url(#12ea8e774e)"><g clip-path="url(#09570a42df)"><g clip-path="url(#a69eb0ba88)"><path fill="#c5cae9" d="M 257.929688 30.152344 C 259.742188 24.667969 265.710938 21.664062 271.195312 23.476562 L 340.980469 46.539062 C 346.464844 48.351562 349.46875 54.320312 347.65625 59.804688 L 324.59375 129.589844 C 322.78125 135.074219 316.8125 138.078125 311.328125 136.265625 L 241.542969 113.203125 C 236.058594 111.390625 233.054688 105.421875 234.867188 99.9375 Z M 257.929688 30.152344 " fill-opacity="1" fill-rule="nonzero"/></g></g></g></g><g clip-path="url(#83c1af1c63)"><g clip-path="url(#ddb446121a)"><g clip-path="url(#cecc1f1c4f)"><g clip-path="url(#560c9450a2)"><path fill="#020f16" d="M 266.230469 30.128906 L 241.519531 104.902344 L 316.292969 129.613281 L 341.003906 54.839844 Z M 287.988281 98.140625 L 268.050781 91.550781 L 279.582031 56.660156 L 287.058594 59.128906 L 277.503906 88.042969 L 289.964844 92.160156 Z M 312.441406 84.382812 L 310.28125 83.390625 C 308.285156 82.734375 306.792969 83.070312 305.71875 84.648438 L 299.953125 102.09375 L 292.972656 99.789062 L 301.703125 73.371094 L 308.183594 75.511719 L 307.527344 78.335938 C 309.265625 76.421875 311.089844 75.917969 313.085938 76.578125 C 313.832031 76.824219 314.582031 77.070312 314.996094 77.484375 Z M 312.441406 84.382812 " fill-opacity="1" fill-rule="nonzero"/></g></g></g></g><g clip-path="url(#130d4b9ced)"><g clip-path="url(#d6d299ea32)"><g clip-path="url(#bd61bbbe02)"><g clip-path="url(#2d5aea7cea)"><path fill="#000000" d="M 93.625 361.878906 C 93.613281 361.878906 93.597656 361.878906 93.585938 361.878906 C 93.523438 361.886719 93.460938 361.902344 93.402344 361.90625 Z M 93.625 361.878906 " fill-opacity="1" fill-rule="nonzero"/></g></g></g></g><g clip-path="url(#db63907014)"><g clip-path="url(#1989b6a09d)"><g clip-path="url(#f5cb2ee7bd)"><g clip-path="url(#2dc3d10399)"><path fill="#000000" d="M 137.367188 308.640625 C 137.367188 308.652344 137.367188 308.667969 137.367188 308.6875 C 137.375 308.742188 137.382812 308.796875 137.386719 308.847656 Z M 137.367188 308.640625 " fill-opacity="1" fill-rule="nonzero"/></g></g></g></g><g clip-path="url(#b620f158d2)"><g clip-path="url(#67d8375ded)"><g clip-path="url(#0b8d3ddec9)"><g clip-path="url(#f172f9a342)"><path fill="#000000" d="M 18.359375 296.160156 C 18.339844 296.070312 18.308594 295.992188 18.289062 295.90625 Z M 18.359375 296.160156 " fill-opacity="1" fill-rule="nonzero"/></g></g></g></g><g clip-path="url(#378ff5a0c0)"><g clip-path="url(#96c57b67ae)"><g clip-path="url(#6b87dc6935)"><g clip-path="url(#2307a3ad8a)"><path fill="#f44336" d="M 29.402344 257.136719 C 26.109375 260.363281 23.476562 264.0625 21.652344 267.820312 C 17.132812 276.921875 16.027344 286.390625 18.359375 296.160156 C 19.394531 300.476562 21.179688 304.675781 23.835938 308.636719 C 23.960938 308.832031 24.046875 309.054688 24.152344 309.265625 L 51.867188 345.449219 C 52.683594 346.300781 53.5 347.160156 54.324219 348.007812 L 54.472656 348.167969 C 58.296875 352.082031 62.699219 355.183594 67.195312 357.300781 L 67.460938 357.445312 C 75.507812 361.316406 84.496094 362.851562 93.585938 361.878906 C 99.484375 361.285156 105.324219 359.585938 111.011719 356.570312 C 112.691406 355.671875 114.289062 354.632812 115.925781 353.652344 C 116.125 353.53125 116.339844 353.429688 116.554688 353.316406 L 120.007812 350.671875 C 120.914062 349.816406 121.828125 348.964844 122.726562 348.101562 L 122.890625 347.949219 C 126.894531 344.078125 130.09375 339.632812 132.304688 335.113281 L 132.457031 334.839844 C 136.488281 326.800781 138.175781 317.800781 137.363281 308.683594 C 136.871094 302.890625 135.273438 297.144531 132.363281 291.546875 C 131.460938 289.832031 130.402344 288.207031 129.414062 286.535156 C 129.28125 286.316406 129.160156 286.082031 129.039062 285.859375 L 126.671875 282.769531 C 125.804688 281.847656 124.9375 280.925781 124.054688 280.007812 L 123.902344 279.847656 C 120.0625 275.921875 115.628906 272.808594 111.125 270.679688 L 110.855469 270.539062 C 105.933594 268.179688 100.660156 266.6875 95.257812 266.09375 C 95.023438 266.050781 94.800781 265.921875 94.640625 265.714844 C 94.621094 265.6875 94.605469 265.660156 94.589844 265.636719 L 94.710938 265.839844 C 93.695312 264.015625 92.535156 262.242188 91.226562 260.535156 C 90.792969 259.96875 90.347656 259.410156 89.953125 258.949219 L 89.894531 258.882812 C 86.195312 254.5 81.707031 251.125 77.015625 248.917969 C 67.328125 244.296875 57.234375 243.53125 46.820312 246.625 C 43.046875 247.753906 39.382812 249.445312 35.886719 251.824219 C 35.6875 251.957031 35.464844 252.046875 35.253906 252.152344 L 31.898438 254.722656 L 29.542969 257.011719 Z M 29.402344 257.136719 " fill-opacity="1" fill-rule="nonzero"/></g></g></g></g><g clip-path="url(#32e4b5b174)"><g clip-path="url(#3dabded955)"><g clip-path="url(#dedfa56fb1)"><g clip-path="url(#e22a8341fc)"><path fill="#ffffff" d="M 106.019531 278.527344 C 110.472656 280.496094 114.585938 283.386719 118.117188 287.265625 C 126.859375 297.054688 130.007812 308.503906 127.386719 321.527344 C 126.007812 328.332031 122.863281 334.335938 118.226562 339.554688 C 116.578125 341.410156 114.738281 343.140625 112.691406 344.707031 C 111.203125 345.847656 109.664062 346.863281 108.257812 347.65625 L 108.089844 347.757812 C 101.589844 351.523438 94.34375 353.222656 87.292969 352.980469 C 78.277344 352.71875 70.292969 349.738281 63.40625 344.035156 C 59.804688 341.039062 56.890625 337.46875 54.570312 333.40625 C 51.605469 328.226562 49.859375 322.683594 49.753906 316.660156 C 49.730469 315.054688 49.828125 313.445312 50.042969 311.851562 C 51.292969 302.546875 52.609375 293.25 53.847656 283.945312 C 54.15625 281.605469 55.558594 280.410156 57.316406 280.03125 L 57.34375 280.023438 C 58.992188 279.644531 60.785156 280.226562 61.882812 281.660156 C 62.011719 281.824219 62.132812 282 62.21875 282.15625 C 62.796875 283.152344 62.816406 284.246094 62.65625 285.371094 C 61.4375 293.804688 60.253906 302.238281 59.015625 310.667969 C 58.046875 317.234375 59.1875 323.398438 62.433594 329.0625 C 67.714844 338.265625 75.777344 343.34375 86.480469 344.132812 C 92.34375 344.5625 97.914062 343.195312 103.15625 340.417969 C 110.972656 336.28125 115.972656 329.894531 118.25 321.464844 C 120.269531 314.015625 119.585938 306.808594 116.082031 299.992188 C 112.507812 293.039062 106.980469 288.25 99.582031 285.597656 C 99.375 285.523438 99.109375 285.25 99.105469 285.0625 C 99.054688 282.070312 98.753906 279.085938 98.195312 276.15625 C 98.191406 276.121094 98.214844 276.074219 98.25 275.949219 C 100.84375 276.511719 103.390625 277.332031 106.019531 278.527344 Z M 106.019531 278.527344 " fill-opacity="1" fill-rule="nonzero"/></g></g></g></g><g clip-path="url(#223f357bd9)"><g clip-path="url(#4648ceec34)"><g clip-path="url(#01aee7d9c3)"><g clip-path="url(#ba45f02b9f)"><path fill="#ffffff" d="M 76.742188 259.757812 C 86.65625 266.789062 91.039062 276.652344 89.742188 288.863281 C 89.070312 295.160156 87.984375 301.417969 87.054688 307.6875 C 86.785156 309.464844 85.695312 310.667969 83.992188 311.210938 C 82.257812 311.761719 80.765625 311.183594 79.527344 309.976562 C 78.570312 309.042969 78.257812 307.890625 78.460938 306.539062 C 79.339844 300.566406 80.109375 294.585938 81.050781 288.621094 C 81.824219 283.738281 80.917969 279.195312 78.722656 274.917969 C 73.828125 265.367188 62.375 260.652344 51.898438 263.804688 C 38.625 267.796875 31.621094 282.890625 37.28125 295.3125 C 38.417969 297.8125 40.078125 299.964844 41.78125 302.082031 C 41.800781 302.105469 41.816406 302.128906 41.835938 302.15625 C 42.234375 302.671875 42.363281 303.3125 42.242188 303.90625 C 41.773438 307.644531 41.375 311.386719 40.949219 315.125 L 40.953125 315.074219 C 40.933594 315.316406 40.90625 315.554688 40.875 315.863281 C 40.671875 315.625 40.527344 315.476562 40.402344 315.3125 L 32.847656 305.445312 C 23.839844 293.65625 24.355469 277.292969 34.105469 265.726562 C 44.804688 253.035156 63.40625 250.304688 76.742188 259.757812 Z M 76.742188 259.757812 " fill-opacity="1" fill-rule="nonzero"/></g></g></g></g></svg>